<svg version="1.0" xmlns="http://www.w3.org/2000/svg" width="255.000000pt" height="241.000000pt" viewBox="0 0 255.000000 241.000000" preserveAspectRatio="xMidYMid meet" transform="matrix(1, 0, 0, 1, 0, 0)">

<g transform="translate(0.000000,241.000000) scale(0.100000,-0.100000)" fill="#fca311" stroke="none">
<path d="M703 1893 c3 -16 40 -254 83 -530 43 -277 82 -499 85 -495 17 17 102 219 101 238 -2 24 -119 758 -127 792 -5 20 -11 22 -76 22 l-71 0 5 -27z" fill="#fca311"/>
<path d="M1286 1893 c-3 -16 -49 -341 -101 -723 -93 -672 -101 -727 -109 -719 -2 2 -14 69 -25 148 -12 80 -23 146 -24 148 -2 1 -27 -49 -56 -111 l-53 -114 27 -164 c14 -90 28 -176 31 -191 l6 -28 86 3 87 3 82 545 c114 758 125 831 129 827 2 -2 47 -302 99 -668 52 -365 98 -674 100 -686 5 -22 10 -23 89 -23 79 0 84 1 89 23 3 12 18 97 33 190 l27 167 -48 105 c-26 58 -49 104 -51 102 -2 -2 -13 -66 -24 -142 -11 -76 -23 -141 -25 -144 -3 -2 -5 0 -5 4 0 13 -200 1416 -206 1448 -5 26 -7 27 -79 27 -72 0 -74 -1 -79 -27z" fill="#fca311"/>
<path d="M1877 1883 c-4 -21 -32 -209 -63 -418 l-56 -380 47 -103 c27 -56 49 -101 51 -100 2 2 124 740 163 991 l8 47 -72 0 -72 0 -6 -37z" fill="#fca311"/>
<path d="M351 1678 c0 -7 62 -303 137 -658 l137 -645 100 -2 100 -3 160 346 160 345 32 232 c17 127 31 233 29 234 -1 1 -108 -227 -236 -507 -129 -280 -238 -506 -241 -502 -5 6 -229 1144 -229 1165 0 4 -34 7 -75 7 -54 0 -75 -4 -74 -12z" fill="#fca311"/>
<path d="M2235 1668 c-3 -13 -43 -212 -90 -443 -118 -578 -145 -708 -149 -712 -2 -2 -108 226 -237 506 -128 281 -234 509 -236 508 -1 -1 13 -106 31 -233 l34 -231 153 -346 154 -347 102 0 102 0 11 53 c6 28 70 325 143 660 l133 607 -73 0 c-67 0 -73 -2 -78 -22z" fill="#fca311"/>
</g>
</svg>