<?xml version="1.0" standalone="no"?>
<!DOCTYPE svg PUBLIC "-//W3C//DTD SVG 20010904//EN"
 "http://www.w3.org/TR/2001/REC-SVG-20010904/DTD/svg10.dtd">
<svg version="1.0" xmlns="http://www.w3.org/2000/svg"
 width="222.000000pt" height="189.000000pt" viewBox="0 0 222.000000 189.000000"
 preserveAspectRatio="xMidYMid meet">

<g transform="translate(0.000000,189.000000) scale(0.100000,-0.100000)"
fill="#000000" stroke="none">
<path d="M1200 1517 c-180 -100 -212 -120 -217 -133 -3 -8 13 -129 36 -269
l41 -255 -36 -80 c-20 -44 -40 -80 -43 -80 -3 0 -28 141 -55 313 -26 171 -49
313 -51 315 -1 2 -37 -18 -79 -43 -56 -34 -75 -51 -72 -63 3 -10 37 -183 76
-387 39 -203 74 -377 76 -385 3 -8 82 153 177 357 94 205 173 371 174 369 2
-2 -7 -79 -20 -172 l-24 -169 -117 -252 -118 -252 -57 -3 -56 -3 108 -62 c83
-48 107 -58 107 -45 0 9 -7 65 -17 123 l-16 106 38 82 c21 44 40 80 41 78 2
-2 10 -50 19 -107 14 -91 25 -137 25 -101 0 6 20 159 45 339 25 180 57 410 71
512 14 102 27 193 30 203 4 13 16 17 59 17 52 0 53 -1 59 -32 3 -18 37 -258
76 -533 39 -275 72 -504 74 -510 1 -5 8 31 15 80 7 50 15 97 18 105 3 9 19
-13 41 -60 l35 -75 -18 -118 c-9 -65 -15 -120 -13 -122 2 -3 53 24 114 58
l109 62 -63 5 -63 5 -113 255 -113 255 -22 159 c-12 87 -20 160 -18 162 2 2
77 -157 166 -354 90 -196 167 -360 171 -365 3 -4 43 171 87 390 75 366 80 398
65 410 -27 20 -115 71 -131 75 -12 2 -25 -59 -66 -307 l-51 -310 -38 74 -38
74 37 246 c20 135 39 256 42 268 4 18 -11 31 -114 91 -236 139 -247 140 -393
59z"/>
<path d="M1337 1130 c-4 -19 -36 -231 -72 -470 -36 -239 -68 -449 -71 -467 -5
-27 -11 -32 -36 -35 -29 -3 -26 -6 48 -48 69 -40 86 -45 139 -45 53 0 69 5
139 45 l78 45 -35 3 c-30 3 -37 8 -41 30 -3 15 -35 236 -71 492 -36 256 -67
470 -69 475 -1 6 -6 -6 -9 -25z"/>
<path d="M2016 950 c-4 -14 -35 -154 -70 -312 -41 -187 -59 -288 -51 -288 21
0 98 74 113 109 12 28 16 87 20 251 2 118 2 226 0 240 l-4 25 -8 -25z"/>
<path d="M660 754 c1 -226 7 -282 37 -322 22 -30 91 -87 97 -81 5 5 -120 598
-128 606 -3 4 -6 -88 -6 -203z"/>
</g>
</svg>
